#!OML:ASF F:\VICON\USERDATA\INSTALL\rory3\rory3.ASF
:FULLY-SPECIFIED
:DEGREES
111
root 4.67299 17.6806 -2.36797 157.657 -101.436 -153.765
lowerback 34.9572 1.88064 0.828837
upperback 7.63699 2.5844 6.70866
thorax -9.60955 0.800112 5.77586
lowerneck -14.7356 -2.36822 -3.79123
upperneck 13.6654 -1.64859 -5.16655
head 6.59521 -1.48104 -1.21471
rclavicle 9.54166e-015 2.06736e-014
rhumerus -21.9686 -35.574 -56.9491
rradius 83.6312
rwrist -19.0425
rhand -10.3969 1.52311
rfingers 7.12502
rthumb 15.6014 -27.8677
lclavicle 9.54166e-015 2.06736e-014
lhumerus -46.5768 3.03401 86.6588
lradius 51.2589
lwrist 10.8729
lhand -14.8001 53.0263
lfingers 7.12502
lthumb 11.3575 82.6988
rfemur -28.5389 -5.37916 7.11381
rtibia 60.8428
rfoot -16.6611 -20.1599
rtoes 24.3656
lfemur -26.0814 4.4456 -24.6118
ltibia 42.2676
lfoot -10.7242 -0.932853
ltoes -17.4524
112
root 4.71243 17.7546 -2.19789 157.954 -101.636 -153.838
lowerback 34.9184 1.85764 0.800152
upperback 7.62546 2.54255 6.63069
thorax -9.59908 0.784692 5.72322
lowerneck -13.5496 -2.34569 -3.49582
upperneck 12.3477 -1.76082 -5.54918
head 5.96435 -1.49974 -1.35739
rclavicle -1.59028e-015 -3.65764e-014
rhumerus -22.3717 -35.8133 -56.1716
rradius 85.7881
rwrist -19.2631
rhand -8.44001 1.25692
rfingers 7.12502
rthumb 17.4854 -27.9767
lclavicle -1.59028e-015 -3.65764e-014
lhumerus -46.7248 3.33555 86.0852
lradius 51.3547
lwrist 11.023
lhand -14.4932 52.8585
lfingers 7.12502
lthumb 11.6535 82.5144
rfemur -29.3514 -6.83984 8.95964
rtibia 61.7557
rfoot -16.0797 -19.8701
rtoes 23.218
lfemur -26.3702 5.26567 -25.3074
ltibia 42.133
lfoot -9.28522 -2.39357
ltoes -19.4143
113
root 4.7621 17.828 -2.02937 158.658 -102.104 -154.193
lowerback 34.8629 1.74246 0.807899
upperback 7.53267 2.41271 6.55332
thorax -9.66282 0.733734 5.68677
lowerneck -13.8797 -2.50477 -3.47972
upperneck 12.3091 -1.99885 -5.25003
head 6.0063 -1.5907 -1.29107
rclavicle 8.42847e-014 2.06736e-014
rhumerus -22.8421 -36.3723 -55.2998
rradius 88.0727
rwrist -19.1653
rhand -5.91111 0.640131
rfingers 7.12502
rthumb 19.9178 -28.3592
lclavicle 8.42847e-014 2.06736e-014
lhumerus -47.0396 3.92704 85.394
lradius 51.6865
lwrist 10.7619
lhand -13.7668 52.9882
lfingers 7.12502
lthumb 12.354 82.6032
rfemur -30.2052 -8.60842 10.775
rtibia 62.46
rfoot -15.0634 -19.284
rtoes 21.1043
lfemur -26.9721 6.04446 -25.9936
ltibia 42.1661
lfoot -7.49614 -4.32127
ltoes -20.4099
114
root 4.81432 17.9039 -1.86603 160.701 -102.566 -155.948
lowerback 34.9152 1.41755 0.992023
upperback 7.44403 2.07925 6.50924
thorax -9.73707 0.580762 5.67195
lowerneck -13.8741 -2.32733 -4.01596
upperneck 12.1001 -1.77164 -4.39865
head 5.95357 -1.42791 -0.910471
rclavicle 7.95139e-015 3.18055e-015
rhumerus -22.9646 -36.4895 -55.0404
rradius 90.4259
rwrist -17.9239
rhand -1.90297 1.33608
rfingers 7.12502
rthumb 23.7665 -27.2141
lclavicle 7.95139e-015 3.18055e-015
lhumerus -47.4614 4.60604 84.6246
lradius 52.1909
lwrist 10.8488
lhand -14.1747 53.4417
lfingers 7.12502
lthumb 11.9607 83.08
rfemur -30.9266 -10.2321 12.872
rtibia 62.9086
rfoot -14.2858 -17.9804
rtoes 20.6187
lfemur -27.6268 6.38504 -26.1754
ltibia 42.2727
lfoot -5.49571 -6.6363
ltoes -19.2354
115
root 4.8602 17.9803 -1.71111 162.564 -103.038 -157.707
lowerback 35.0556 1.14418 1.20024
upperback 7.44718 1.80711 6.4744
thorax -9.74847 0.449217 5.62961
lowerneck -14.1238 -2.21207 -3.91696
upperneck 11.8352 -1.67042 -4.06074
head 5.91193 -1.3394 -0.809953
rclavicle -3.81667e-014 -3.02153e-014
rhumerus -23.1233 -36.416 -54.8472
rradius 92.6775
rwrist -15.685
rhand 0.288155 1.93352
rfingers 7.12502
rthumb 25.8663 -26.3273
lclavicle -3.81667e-014 -3.02153e-014
lhumerus -47.7379 4.74264 84.0543
lradius 52.7244
lwrist 11.4123
lhand -14.6261 53.6811
lfingers 7.12502
lthumb 11.5254 83.3442
rfemur -31.3124 -11.3957 14.915
rtibia 63.1912
rfoot -13.689 -16.581
rtoes 19.3781
lfemur -28.0761 6.39074 -26.09
ltibia 42.4745
lfoot -3.26166 -9.05769
ltoes -16.3702
